<svg width="25" height="27" viewBox="0 0 25 27" fill="none" xmlns="http://www.w3.org/2000/svg">
<path d="M24.125 19.4724V7.52746C24.125 7.35557 24.0793 7.18677 23.9925 7.0384C23.9057 6.89002 23.781 6.7674 23.6312 6.68313L12.9749 0.688987C12.8299 0.607422 12.6664 0.564575 12.5 0.564575C12.3336 0.564575 12.1701 0.607422 12.0251 0.688987L1.36881 6.68313C1.21899 6.7674 1.0943 6.89002 1.00752 7.0384C0.920737 7.18677 0.875 7.35557 0.875 7.52746V19.4724C0.875 19.6443 0.920737 19.8131 1.00752 19.9615C1.0943 20.1099 1.21899 20.2325 1.36881 20.3168L12.0251 26.3109C12.1701 26.3925 12.3336 26.4353 12.5 26.4353C12.6664 26.4353 12.8299 26.3925 12.9749 26.3109L23.6312 20.3168C23.781 20.2325 23.9057 20.1099 23.9925 19.9615C24.0793 19.8131 24.125 19.6443 24.125 19.4724Z" stroke="#333333" stroke-linecap="round" stroke-linejoin="round"/>
<path d="M17.9363 16.4681V16.9681H18.9363V16.4681H17.9363ZM18.4363 10.1713H18.9363C18.9363 9.98912 18.8372 9.82139 18.6777 9.73343L18.4363 10.1713ZM6.92898 3.25358C6.68717 3.12022 6.38304 3.20813 6.24968 3.44993C6.11631 3.69173 6.20422 3.99587 6.44602 4.12923L6.92898 3.25358ZM18.9363 16.4681V10.1713H17.9363V16.4681H18.9363ZM18.6777 9.73343L6.92898 3.25358L6.44602 4.12923L18.1948 10.6091L18.6777 9.73343Z" fill="#333333"/>
<path d="M23.9915 7.03686L12.615 13.5L1.00928 7.03564" stroke="#333333" stroke-linecap="round" stroke-linejoin="round"/>
<path d="M12.6149 13.5L12.5012 26.4354" stroke="#333333" stroke-linecap="round" stroke-linejoin="round"/>
</svg>
