<svg width="220" height="155" viewBox="0 0 220 155" fill="none" xmlns="http://www.w3.org/2000/svg">
<path d="M1.58505 3.19129C2.5448 3.19129 3.19918 2.49501 3.19918 1.58114C3.19918 0.696283 2.5448 0 1.58505 0C0.596211 0 0 0.696283 0 1.58114C0 2.49501 0.596211 3.19129 1.58505 3.19129Z" fill="black"/>
<path d="M21.2942 3.19129C22.254 3.19129 22.9083 2.49501 22.9083 1.58114C22.9083 0.696283 22.254 0 21.2942 0C20.3054 0 19.7092 0.696283 19.7092 1.58114C19.7092 2.49501 20.3054 3.19129 21.2942 3.19129Z" fill="black"/>
<path d="M41.0034 3.19129C41.9631 3.19129 42.6175 2.49501 42.6175 1.58114C42.6175 0.696283 41.9631 0 41.0034 0C40.0145 0 39.4183 0.696283 39.4183 1.58114C39.4183 2.49501 40.0145 3.19129 41.0034 3.19129Z" fill="black"/>
<path d="M60.7126 3.19129C61.6723 3.19129 62.3267 2.49501 62.3267 1.58114C62.3267 0.696283 61.6723 0 60.7126 0C59.7237 0 59.1275 0.696283 59.1275 1.58114C59.1275 2.49501 59.7237 3.19129 60.7126 3.19129Z" fill="black"/>
<path d="M80.4217 3.19129C81.3815 3.19129 82.0359 2.49501 82.0359 1.58114C82.0359 0.696283 81.3815 0 80.4217 0C79.4329 0 78.8367 0.696283 78.8367 1.58114C78.8367 2.49501 79.4329 3.19129 80.4217 3.19129Z" fill="black"/>
<path d="M100.131 3.19129C101.091 3.19129 101.745 2.49501 101.745 1.58114C101.745 0.696283 101.091 0 100.131 0C99.142 0 98.5458 0.696283 98.5458 1.58114C98.5458 2.49501 99.142 3.19129 100.131 3.19129Z" fill="black"/>
<path d="M119.84 3.19129C120.8 3.19129 121.454 2.49501 121.454 1.58114C121.454 0.696283 120.8 0 119.84 0C118.851 0 118.255 0.696283 118.255 1.58114C118.255 2.49501 118.851 3.19129 119.84 3.19129Z" fill="black"/>
<path d="M139.549 3.19129C140.509 3.19129 141.163 2.49501 141.163 1.58114C141.163 0.696283 140.509 0 139.549 0C138.56 0 137.964 0.696283 137.964 1.58114C137.964 2.49501 138.56 3.19129 139.549 3.19129Z" fill="black"/>
<path d="M159.258 3.19129C160.218 3.19129 160.873 2.49501 160.873 1.58114C160.873 0.696283 160.218 0 159.258 0C158.27 0 157.673 0.696283 157.673 1.58114C157.673 2.49501 158.27 3.19129 159.258 3.19129Z" fill="black"/>
<path d="M178.968 3.19129C179.927 3.19129 180.582 2.49501 180.582 1.58114C180.582 0.696283 179.927 0 178.968 0C177.979 0 177.382 0.696283 177.382 1.58114C177.382 2.49501 177.979 3.19129 178.968 3.19129Z" fill="black"/>
<path d="M198.677 3.19129C199.636 3.19129 200.291 2.49501 200.291 1.58114C200.291 0.696283 199.636 0 198.677 0C197.688 0 197.092 0.696283 197.092 1.58114C197.092 2.49501 197.688 3.19129 198.677 3.19129Z" fill="black"/>
<path d="M218.386 3.19129C219.346 3.19129 220 2.49501 220 1.58114C220 0.696283 219.346 0 218.386 0C217.397 0 216.801 0.696283 216.801 1.58114C216.801 2.49501 217.397 3.19129 218.386 3.19129Z" fill="black"/>
<path d="M1.58505 24.8783C2.5448 24.8783 3.19918 24.182 3.19918 23.2681C3.19918 22.3832 2.5448 21.687 1.58505 21.687C0.596211 21.687 0 22.3832 0 23.2681C0 24.182 0.596211 24.8783 1.58505 24.8783Z" fill="black"/>
<path d="M21.2942 24.8783C22.254 24.8783 22.9083 24.182 22.9083 23.2681C22.9083 22.3832 22.254 21.687 21.2942 21.687C20.3054 21.687 19.7092 22.3832 19.7092 23.2681C19.7092 24.182 20.3054 24.8783 21.2942 24.8783Z" fill="black"/>
<path d="M41.0034 24.8783C41.9631 24.8783 42.6175 24.182 42.6175 23.2681C42.6175 22.3832 41.9631 21.687 41.0034 21.687C40.0145 21.687 39.4183 22.3832 39.4183 23.2681C39.4183 24.182 40.0145 24.8783 41.0034 24.8783Z" fill="black"/>
<path d="M60.7126 24.8783C61.6723 24.8783 62.3267 24.182 62.3267 23.2681C62.3267 22.3832 61.6723 21.687 60.7126 21.687C59.7237 21.687 59.1275 22.3832 59.1275 23.2681C59.1275 24.182 59.7237 24.8783 60.7126 24.8783Z" fill="black"/>
<path d="M80.4217 24.8783C81.3815 24.8783 82.0359 24.182 82.0359 23.2681C82.0359 22.3832 81.3815 21.687 80.4217 21.687C79.4329 21.687 78.8367 22.3832 78.8367 23.2681C78.8367 24.182 79.4329 24.8783 80.4217 24.8783Z" fill="black"/>
<path d="M100.131 24.8783C101.091 24.8783 101.745 24.182 101.745 23.2681C101.745 22.3832 101.091 21.687 100.131 21.687C99.142 21.687 98.5458 22.3832 98.5458 23.2681C98.5458 24.182 99.142 24.8783 100.131 24.8783Z" fill="black"/>
<path d="M119.84 24.8783C120.8 24.8783 121.454 24.182 121.454 23.2681C121.454 22.3832 120.8 21.687 119.84 21.687C118.851 21.687 118.255 22.3832 118.255 23.2681C118.255 24.182 118.851 24.8783 119.84 24.8783Z" fill="black"/>
<path d="M139.549 24.8783C140.509 24.8783 141.163 24.182 141.163 23.2681C141.163 22.3832 140.509 21.687 139.549 21.687C138.56 21.687 137.964 22.3832 137.964 23.2681C137.964 24.182 138.56 24.8783 139.549 24.8783Z" fill="black"/>
<path d="M159.258 24.8783C160.218 24.8783 160.873 24.182 160.873 23.2681C160.873 22.3832 160.218 21.687 159.258 21.687C158.27 21.687 157.673 22.3832 157.673 23.2681C157.673 24.182 158.27 24.8783 159.258 24.8783Z" fill="black"/>
<path d="M178.968 24.8783C179.927 24.8783 180.582 24.182 180.582 23.2681C180.582 22.3832 179.927 21.687 178.968 21.687C177.979 21.687 177.382 22.3832 177.382 23.2681C177.382 24.182 177.979 24.8783 178.968 24.8783Z" fill="black"/>
<path d="M198.677 24.8783C199.636 24.8783 200.291 24.182 200.291 23.2681C200.291 22.3832 199.636 21.687 198.677 21.687C197.688 21.687 197.092 22.3832 197.092 23.2681C197.092 24.182 197.688 24.8783 198.677 24.8783Z" fill="black"/>
<path d="M218.386 24.8783C219.346 24.8783 220 24.182 220 23.2681C220 22.3832 219.346 21.687 218.386 21.687C217.397 21.687 216.801 22.3832 216.801 23.2681C216.801 24.182 217.397 24.8783 218.386 24.8783Z" fill="black"/>
<path d="M1.58505 46.5652C2.5448 46.5652 3.19918 45.8689 3.19918 44.9551C3.19918 44.0702 2.5448 43.3739 1.58505 43.3739C0.596211 43.3739 0 44.0702 0 44.9551C0 45.8689 0.596211 46.5652 1.58505 46.5652Z" fill="black"/>
<path d="M21.2942 46.5652C22.254 46.5652 22.9083 45.8689 22.9083 44.9551C22.9083 44.0702 22.254 43.3739 21.2942 43.3739C20.3054 43.3739 19.7092 44.0702 19.7092 44.9551C19.7092 45.8689 20.3054 46.5652 21.2942 46.5652Z" fill="black"/>
<path d="M41.0034 46.5652C41.9631 46.5652 42.6175 45.8689 42.6175 44.9551C42.6175 44.0702 41.9631 43.3739 41.0034 43.3739C40.0145 43.3739 39.4183 44.0702 39.4183 44.9551C39.4183 45.8689 40.0145 46.5652 41.0034 46.5652Z" fill="black"/>
<path d="M60.7126 46.5652C61.6723 46.5652 62.3267 45.8689 62.3267 44.9551C62.3267 44.0702 61.6723 43.3739 60.7126 43.3739C59.7237 43.3739 59.1275 44.0702 59.1275 44.9551C59.1275 45.8689 59.7237 46.5652 60.7126 46.5652Z" fill="black"/>
<path d="M80.4217 46.5652C81.3815 46.5652 82.0359 45.8689 82.0359 44.9551C82.0359 44.0702 81.3815 43.3739 80.4217 43.3739C79.4329 43.3739 78.8367 44.0702 78.8367 44.9551C78.8367 45.8689 79.4329 46.5652 80.4217 46.5652Z" fill="black"/>
<path d="M100.131 46.5652C101.091 46.5652 101.745 45.8689 101.745 44.9551C101.745 44.0702 101.091 43.3739 100.131 43.3739C99.142 43.3739 98.5458 44.0702 98.5458 44.9551C98.5458 45.8689 99.142 46.5652 100.131 46.5652Z" fill="black"/>
<path d="M119.84 46.5652C120.8 46.5652 121.454 45.8689 121.454 44.9551C121.454 44.0702 120.8 43.3739 119.84 43.3739C118.851 43.3739 118.255 44.0702 118.255 44.9551C118.255 45.8689 118.851 46.5652 119.84 46.5652Z" fill="black"/>
<path d="M139.549 46.5652C140.509 46.5652 141.163 45.8689 141.163 44.9551C141.163 44.0702 140.509 43.3739 139.549 43.3739C138.56 43.3739 137.964 44.0702 137.964 44.9551C137.964 45.8689 138.56 46.5652 139.549 46.5652Z" fill="black"/>
<path d="M159.258 46.5652C160.218 46.5652 160.873 45.8689 160.873 44.9551C160.873 44.0702 160.218 43.3739 159.258 43.3739C158.27 43.3739 157.673 44.0702 157.673 44.9551C157.673 45.8689 158.27 46.5652 159.258 46.5652Z" fill="black"/>
<path d="M178.968 46.5652C179.927 46.5652 180.582 45.8689 180.582 44.9551C180.582 44.0702 179.927 43.3739 178.968 43.3739C177.979 43.3739 177.382 44.0702 177.382 44.9551C177.382 45.8689 177.979 46.5652 178.968 46.5652Z" fill="black"/>
<path d="M198.677 46.5652C199.636 46.5652 200.291 45.8689 200.291 44.9551C200.291 44.0702 199.636 43.3739 198.677 43.3739C197.688 43.3739 197.092 44.0702 197.092 44.9551C197.092 45.8689 197.688 46.5652 198.677 46.5652Z" fill="black"/>
<path d="M218.386 46.5652C219.346 46.5652 220 45.8689 220 44.9551C220 44.0702 219.346 43.3739 218.386 43.3739C217.397 43.3739 216.801 44.0702 216.801 44.9551C216.801 45.8689 217.397 46.5652 218.386 46.5652Z" fill="black"/>
<path d="M1.58505 68.2522C2.5448 68.2522 3.19918 67.5559 3.19918 66.642C3.19918 65.7572 2.5448 65.0609 1.58505 65.0609C0.596211 65.0609 0 65.7572 0 66.642C0 67.5559 0.596211 68.2522 1.58505 68.2522Z" fill="black"/>
<path d="M21.2942 68.2522C22.254 68.2522 22.9083 67.5559 22.9083 66.642C22.9083 65.7572 22.254 65.0609 21.2942 65.0609C20.3054 65.0609 19.7092 65.7572 19.7092 66.642C19.7092 67.5559 20.3054 68.2522 21.2942 68.2522Z" fill="black"/>
<path d="M41.0034 68.2522C41.9631 68.2522 42.6175 67.5559 42.6175 66.642C42.6175 65.7572 41.9631 65.0609 41.0034 65.0609C40.0145 65.0609 39.4183 65.7572 39.4183 66.642C39.4183 67.5559 40.0145 68.2522 41.0034 68.2522Z" fill="black"/>
<path d="M60.7126 68.2522C61.6723 68.2522 62.3267 67.5559 62.3267 66.642C62.3267 65.7572 61.6723 65.0609 60.7126 65.0609C59.7237 65.0609 59.1275 65.7572 59.1275 66.642C59.1275 67.5559 59.7237 68.2522 60.7126 68.2522Z" fill="black"/>
<path d="M80.4217 68.2522C81.3815 68.2522 82.0359 67.5559 82.0359 66.642C82.0359 65.7572 81.3815 65.0609 80.4217 65.0609C79.4329 65.0609 78.8367 65.7572 78.8367 66.642C78.8367 67.5559 79.4329 68.2522 80.4217 68.2522Z" fill="black"/>
<path d="M100.131 68.2522C101.091 68.2522 101.745 67.5559 101.745 66.642C101.745 65.7572 101.091 65.0609 100.131 65.0609C99.142 65.0609 98.5458 65.7572 98.5458 66.642C98.5458 67.5559 99.142 68.2522 100.131 68.2522Z" fill="black"/>
<path d="M119.84 68.2522C120.8 68.2522 121.454 67.5559 121.454 66.642C121.454 65.7572 120.8 65.0609 119.84 65.0609C118.851 65.0609 118.255 65.7572 118.255 66.642C118.255 67.5559 118.851 68.2522 119.84 68.2522Z" fill="black"/>
<path d="M139.549 68.2522C140.509 68.2522 141.163 67.5559 141.163 66.642C141.163 65.7572 140.509 65.0609 139.549 65.0609C138.56 65.0609 137.964 65.7572 137.964 66.642C137.964 67.5559 138.56 68.2522 139.549 68.2522Z" fill="black"/>
<path d="M159.258 68.2522C160.218 68.2522 160.873 67.5559 160.873 66.642C160.873 65.7572 160.218 65.0609 159.258 65.0609C158.27 65.0609 157.673 65.7572 157.673 66.642C157.673 67.5559 158.27 68.2522 159.258 68.2522Z" fill="black"/>
<path d="M178.968 68.2522C179.927 68.2522 180.582 67.5559 180.582 66.642C180.582 65.7572 179.927 65.0609 178.968 65.0609C177.979 65.0609 177.382 65.7572 177.382 66.642C177.382 67.5559 177.979 68.2522 178.968 68.2522Z" fill="black"/>
<path d="M198.677 68.2522C199.636 68.2522 200.291 67.5559 200.291 66.642C200.291 65.7572 199.636 65.0609 198.677 65.0609C197.688 65.0609 197.092 65.7572 197.092 66.642C197.092 67.5559 197.688 68.2522 198.677 68.2522Z" fill="black"/>
<path d="M218.386 68.2522C219.346 68.2522 220 67.5559 220 66.642C220 65.7572 219.346 65.0609 218.386 65.0609C217.397 65.0609 216.801 65.7572 216.801 66.642C216.801 67.5559 217.397 68.2522 218.386 68.2522Z" fill="black"/>
<path d="M1.58505 89.9391C2.5448 89.9391 3.19918 89.2428 3.19918 88.329C3.19918 87.4441 2.5448 86.7478 1.58505 86.7478C0.596211 86.7478 0 87.4441 0 88.329C0 89.2428 0.596211 89.9391 1.58505 89.9391Z" fill="black"/>
<path d="M21.2942 89.9391C22.254 89.9391 22.9083 89.2428 22.9083 88.329C22.9083 87.4441 22.254 86.7478 21.2942 86.7478C20.3054 86.7478 19.7092 87.4441 19.7092 88.329C19.7092 89.2428 20.3054 89.9391 21.2942 89.9391Z" fill="black"/>
<path d="M41.0034 89.9391C41.9631 89.9391 42.6175 89.2428 42.6175 88.329C42.6175 87.4441 41.9631 86.7478 41.0034 86.7478C40.0145 86.7478 39.4183 87.4441 39.4183 88.329C39.4183 89.2428 40.0145 89.9391 41.0034 89.9391Z" fill="black"/>
<path d="M60.7126 89.9391C61.6723 89.9391 62.3267 89.2428 62.3267 88.329C62.3267 87.4441 61.6723 86.7478 60.7126 86.7478C59.7237 86.7478 59.1275 87.4441 59.1275 88.329C59.1275 89.2428 59.7237 89.9391 60.7126 89.9391Z" fill="black"/>
<path d="M80.4217 89.9391C81.3815 89.9391 82.0359 89.2428 82.0359 88.329C82.0359 87.4441 81.3815 86.7478 80.4217 86.7478C79.4329 86.7478 78.8367 87.4441 78.8367 88.329C78.8367 89.2428 79.4329 89.9391 80.4217 89.9391Z" fill="black"/>
<path d="M100.131 89.9391C101.091 89.9391 101.745 89.2428 101.745 88.329C101.745 87.4441 101.091 86.7478 100.131 86.7478C99.142 86.7478 98.5458 87.4441 98.5458 88.329C98.5458 89.2428 99.142 89.9391 100.131 89.9391Z" fill="black"/>
<path d="M119.84 89.9391C120.8 89.9391 121.454 89.2428 121.454 88.329C121.454 87.4441 120.8 86.7478 119.84 86.7478C118.851 86.7478 118.255 87.4441 118.255 88.329C118.255 89.2428 118.851 89.9391 119.84 89.9391Z" fill="black"/>
<path d="M139.549 89.9391C140.509 89.9391 141.163 89.2428 141.163 88.329C141.163 87.4441 140.509 86.7478 139.549 86.7478C138.56 86.7478 137.964 87.4441 137.964 88.329C137.964 89.2428 138.56 89.9391 139.549 89.9391Z" fill="black"/>
<path d="M159.258 89.9391C160.218 89.9391 160.873 89.2428 160.873 88.329C160.873 87.4441 160.218 86.7478 159.258 86.7478C158.27 86.7478 157.673 87.4441 157.673 88.329C157.673 89.2428 158.27 89.9391 159.258 89.9391Z" fill="black"/>
<path d="M178.968 89.9391C179.927 89.9391 180.582 89.2428 180.582 88.329C180.582 87.4441 179.927 86.7478 178.968 86.7478C177.979 86.7478 177.382 87.4441 177.382 88.329C177.382 89.2428 177.979 89.9391 178.968 89.9391Z" fill="black"/>
<path d="M198.677 89.9391C199.636 89.9391 200.291 89.2428 200.291 88.329C200.291 87.4441 199.636 86.7478 198.677 86.7478C197.688 86.7478 197.092 87.4441 197.092 88.329C197.092 89.2428 197.688 89.9391 198.677 89.9391Z" fill="black"/>
<path d="M218.386 89.9391C219.346 89.9391 220 89.2428 220 88.329C220 87.4441 219.346 86.7478 218.386 86.7478C217.397 86.7478 216.801 87.4441 216.801 88.329C216.801 89.2428 217.397 89.9391 218.386 89.9391Z" fill="black"/>
<path d="M1.58505 111.626C2.5448 111.626 3.19918 110.93 3.19918 110.016C3.19918 109.131 2.5448 108.435 1.58505 108.435C0.596211 108.435 0 109.131 0 110.016C0 110.93 0.596211 111.626 1.58505 111.626Z" fill="black"/>
<path d="M21.2942 111.626C22.254 111.626 22.9083 110.93 22.9083 110.016C22.9083 109.131 22.254 108.435 21.2942 108.435C20.3054 108.435 19.7092 109.131 19.7092 110.016C19.7092 110.93 20.3054 111.626 21.2942 111.626Z" fill="black"/>
<path d="M41.0034 111.626C41.9631 111.626 42.6175 110.93 42.6175 110.016C42.6175 109.131 41.9631 108.435 41.0034 108.435C40.0145 108.435 39.4183 109.131 39.4183 110.016C39.4183 110.93 40.0145 111.626 41.0034 111.626Z" fill="black"/>
<path d="M60.7126 111.626C61.6723 111.626 62.3267 110.93 62.3267 110.016C62.3267 109.131 61.6723 108.435 60.7126 108.435C59.7237 108.435 59.1275 109.131 59.1275 110.016C59.1275 110.93 59.7237 111.626 60.7126 111.626Z" fill="black"/>
<path d="M80.4217 111.626C81.3815 111.626 82.0359 110.93 82.0359 110.016C82.0359 109.131 81.3815 108.435 80.4217 108.435C79.4329 108.435 78.8367 109.131 78.8367 110.016C78.8367 110.93 79.4329 111.626 80.4217 111.626Z" fill="black"/>
<path d="M100.131 111.626C101.091 111.626 101.745 110.93 101.745 110.016C101.745 109.131 101.091 108.435 100.131 108.435C99.142 108.435 98.5458 109.131 98.5458 110.016C98.5458 110.93 99.142 111.626 100.131 111.626Z" fill="black"/>
<path d="M119.84 111.626C120.8 111.626 121.454 110.93 121.454 110.016C121.454 109.131 120.8 108.435 119.84 108.435C118.851 108.435 118.255 109.131 118.255 110.016C118.255 110.93 118.851 111.626 119.84 111.626Z" fill="black"/>
<path d="M139.549 111.626C140.509 111.626 141.163 110.93 141.163 110.016C141.163 109.131 140.509 108.435 139.549 108.435C138.56 108.435 137.964 109.131 137.964 110.016C137.964 110.93 138.56 111.626 139.549 111.626Z" fill="black"/>
<path d="M159.258 111.626C160.218 111.626 160.873 110.93 160.873 110.016C160.873 109.131 160.218 108.435 159.258 108.435C158.27 108.435 157.673 109.131 157.673 110.016C157.673 110.93 158.27 111.626 159.258 111.626Z" fill="black"/>
<path d="M178.968 111.626C179.927 111.626 180.582 110.93 180.582 110.016C180.582 109.131 179.927 108.435 178.968 108.435C177.979 108.435 177.382 109.131 177.382 110.016C177.382 110.93 177.979 111.626 178.968 111.626Z" fill="black"/>
<path d="M198.677 111.626C199.636 111.626 200.291 110.93 200.291 110.016C200.291 109.131 199.636 108.435 198.677 108.435C197.688 108.435 197.092 109.131 197.092 110.016C197.092 110.93 197.688 111.626 198.677 111.626Z" fill="black"/>
<path d="M218.386 111.626C219.346 111.626 220 110.93 220 110.016C220 109.131 219.346 108.435 218.386 108.435C217.397 108.435 216.801 109.131 216.801 110.016C216.801 110.93 217.397 111.626 218.386 111.626Z" fill="black"/>
<path d="M1.58505 133.313C2.5448 133.313 3.19918 132.617 3.19918 131.703C3.19918 130.818 2.5448 130.122 1.58505 130.122C0.596211 130.122 0 130.818 0 131.703C0 132.617 0.596211 133.313 1.58505 133.313Z" fill="black"/>
<path d="M21.2942 133.313C22.254 133.313 22.9083 132.617 22.9083 131.703C22.9083 130.818 22.254 130.122 21.2942 130.122C20.3054 130.122 19.7092 130.818 19.7092 131.703C19.7092 132.617 20.3054 133.313 21.2942 133.313Z" fill="black"/>
<path d="M41.0034 133.313C41.9631 133.313 42.6175 132.617 42.6175 131.703C42.6175 130.818 41.9631 130.122 41.0034 130.122C40.0145 130.122 39.4183 130.818 39.4183 131.703C39.4183 132.617 40.0145 133.313 41.0034 133.313Z" fill="black"/>
<path d="M60.7126 133.313C61.6723 133.313 62.3267 132.617 62.3267 131.703C62.3267 130.818 61.6723 130.122 60.7126 130.122C59.7237 130.122 59.1275 130.818 59.1275 131.703C59.1275 132.617 59.7237 133.313 60.7126 133.313Z" fill="black"/>
<path d="M80.4217 133.313C81.3815 133.313 82.0359 132.617 82.0359 131.703C82.0359 130.818 81.3815 130.122 80.4217 130.122C79.4329 130.122 78.8367 130.818 78.8367 131.703C78.8367 132.617 79.4329 133.313 80.4217 133.313Z" fill="black"/>
<path d="M100.131 133.313C101.091 133.313 101.745 132.617 101.745 131.703C101.745 130.818 101.091 130.122 100.131 130.122C99.142 130.122 98.5458 130.818 98.5458 131.703C98.5458 132.617 99.142 133.313 100.131 133.313Z" fill="black"/>
<path d="M119.84 133.313C120.8 133.313 121.454 132.617 121.454 131.703C121.454 130.818 120.8 130.122 119.84 130.122C118.851 130.122 118.255 130.818 118.255 131.703C118.255 132.617 118.851 133.313 119.84 133.313Z" fill="black"/>
<path d="M139.549 133.313C140.509 133.313 141.163 132.617 141.163 131.703C141.163 130.818 140.509 130.122 139.549 130.122C138.56 130.122 137.964 130.818 137.964 131.703C137.964 132.617 138.56 133.313 139.549 133.313Z" fill="black"/>
<path d="M159.258 133.313C160.218 133.313 160.873 132.617 160.873 131.703C160.873 130.818 160.218 130.122 159.258 130.122C158.27 130.122 157.673 130.818 157.673 131.703C157.673 132.617 158.27 133.313 159.258 133.313Z" fill="black"/>
<path d="M178.968 133.313C179.927 133.313 180.582 132.617 180.582 131.703C180.582 130.818 179.927 130.122 178.968 130.122C177.979 130.122 177.382 130.818 177.382 131.703C177.382 132.617 177.979 133.313 178.968 133.313Z" fill="black"/>
<path d="M198.677 133.313C199.636 133.313 200.291 132.617 200.291 131.703C200.291 130.818 199.636 130.122 198.677 130.122C197.688 130.122 197.092 130.818 197.092 131.703C197.092 132.617 197.688 133.313 198.677 133.313Z" fill="black"/>
<path d="M218.386 133.313C219.346 133.313 220 132.617 220 131.703C220 130.818 219.346 130.122 218.386 130.122C217.397 130.122 216.801 130.818 216.801 131.703C216.801 132.617 217.397 133.313 218.386 133.313Z" fill="black"/>
<path d="M1.58505 155C2.5448 155 3.19918 154.304 3.19918 153.39C3.19918 152.505 2.5448 151.809 1.58505 151.809C0.596211 151.809 0 152.505 0 153.39C0 154.304 0.596211 155 1.58505 155Z" fill="black"/>
<path d="M21.2942 155C22.254 155 22.9083 154.304 22.9083 153.39C22.9083 152.505 22.254 151.809 21.2942 151.809C20.3054 151.809 19.7092 152.505 19.7092 153.39C19.7092 154.304 20.3054 155 21.2942 155Z" fill="black"/>
<path d="M41.0034 155C41.9631 155 42.6175 154.304 42.6175 153.39C42.6175 152.505 41.9631 151.809 41.0034 151.809C40.0145 151.809 39.4183 152.505 39.4183 153.39C39.4183 154.304 40.0145 155 41.0034 155Z" fill="black"/>
<path d="M60.7126 155C61.6723 155 62.3267 154.304 62.3267 153.39C62.3267 152.505 61.6723 151.809 60.7126 151.809C59.7237 151.809 59.1275 152.505 59.1275 153.39C59.1275 154.304 59.7237 155 60.7126 155Z" fill="black"/>
<path d="M80.4217 155C81.3815 155 82.0359 154.304 82.0359 153.39C82.0359 152.505 81.3815 151.809 80.4217 151.809C79.4329 151.809 78.8367 152.505 78.8367 153.39C78.8367 154.304 79.4329 155 80.4217 155Z" fill="black"/>
<path d="M100.131 155C101.091 155 101.745 154.304 101.745 153.39C101.745 152.505 101.091 151.809 100.131 151.809C99.142 151.809 98.5458 152.505 98.5458 153.39C98.5458 154.304 99.142 155 100.131 155Z" fill="black"/>
<path d="M119.84 155C120.8 155 121.454 154.304 121.454 153.39C121.454 152.505 120.8 151.809 119.84 151.809C118.851 151.809 118.255 152.505 118.255 153.39C118.255 154.304 118.851 155 119.84 155Z" fill="black"/>
<path d="M139.549 155C140.509 155 141.163 154.304 141.163 153.39C141.163 152.505 140.509 151.809 139.549 151.809C138.56 151.809 137.964 152.505 137.964 153.39C137.964 154.304 138.56 155 139.549 155Z" fill="black"/>
<path d="M159.258 155C160.218 155 160.873 154.304 160.873 153.39C160.873 152.505 160.218 151.809 159.258 151.809C158.27 151.809 157.673 152.505 157.673 153.39C157.673 154.304 158.27 155 159.258 155Z" fill="black"/>
<path d="M178.968 155C179.927 155 180.582 154.304 180.582 153.39C180.582 152.505 179.927 151.809 178.968 151.809C177.979 151.809 177.382 152.505 177.382 153.39C177.382 154.304 177.979 155 178.968 155Z" fill="black"/>
<path d="M198.677 155C199.636 155 200.291 154.304 200.291 153.39C200.291 152.505 199.636 151.809 198.677 151.809C197.688 151.809 197.092 152.505 197.092 153.39C197.092 154.304 197.688 155 198.677 155Z" fill="black"/>
<path d="M218.386 155C219.346 155 220 154.304 220 153.39C220 152.505 219.346 151.809 218.386 151.809C217.397 151.809 216.801 152.505 216.801 153.39C216.801 154.304 217.397 155 218.386 155Z" fill="black"/>
</svg>
