<svg version="1.2" xmlns="http://www.w3.org/2000/svg" viewBox="0 0 694 158" width="694" height="158"><style>.a{fill:#f41e1e}</style><path  d="m158.3 157.7h0.2l-0.2 0.2zm72.4-72.5l-28.1 36.3-1.5 1.9v34.2h-12.9v-33.9l-1.8-2.2-28-36.3h16.3l19.9 25.7 19.8-25.7zm-0.1 72.5h0.1v0.2z"/><path fill-rule="evenodd" d="m295.4 121.5c0 19.9-16.3 36.2-36.2 36.2-20 0-36.2-16.3-36.2-36.2 0-20 16.2-36.2 36.2-36.2 19.9 0 36.2 16.2 36.2 36.2zm-13 0c0-12.8-10.4-23.3-23.2-23.3-12.8 0-23.3 10.5-23.3 23.3 0 12.8 10.5 23.2 23.3 23.2 12.8 0 23.2-10.4 23.2-23.2z"/><path  d="m375.5 85.3v36.2c0 19.9-16.3 36.2-36.2 36.2-20 0-36.2-16.3-36.2-36.2v-36.2h12.9v36.2c0 12.8 10.5 23.2 23.3 23.2 12.8 0 23.3-10.4 23.3-23.2v-36.2z"/><path  d="m458.2 85.3v72.4h-13v-46.1l-12.7 9.7-10.5 8.1-10.6-8.1-12.7-9.7v46.1h-12.9v-72.4l12.9 9.9 23.3 17.9 23.2-17.9z"/><path  d="m538.3 157.7h-14.5l-6.6-13-15.8-31-15.8 31-6.7 13h-14.4l6.6-13 30.3-59.4 30.3 59.4z"/><path  d="m585.2 114.3l31.3 43.4h-15.9l-25-34.6-18.3 16.7v17.9h-12.9v-72.4h12.9v37l10.6-9.7 9.7-8.8 20.1-18.5h19.1z"/><path  d="m633.9 104.8v6.8h46.5v12.9h-46.5v13.6c0 3.6 3 6.6 6.6 6.6h52.8v13h-52.8c-10.7 0-19.4-8.8-19.4-19.6v-33.3c0-10.7 8.7-19.5 19.4-19.5h52.8v12.9h-52.8c-3.6 0-6.6 3-6.6 6.6z"/><path class="a" d="m491 157.7l3.1-6 7.3-14.3 7.3 14.3 3 6"/><path class="a" d="m97.7 69.5l-15.6 14-23.6-54.3 10.9-24.9z"/><path  d="m137.9 152.2c0.6 1.2 0.4 2.6-0.3 3.7-0.7 1.1-1.9 1.8-3.2 1.8h-100q-0.4 0-0.8-0.1 0 0 0 0-0.4-0.1-0.7-0.3-0.1 0-0.2-0.1-0.3-0.1-0.5-0.2-0.1-0.1-0.2-0.2-0.2-0.2-0.4-0.4 0 0-0.1 0-0.1-0.1-0.1-0.2-0.2-0.2-0.3-0.4-0.1-0.1-0.2-0.3 0-0.2-0.1-0.3-0.1-0.2-0.1-0.4-0.1-0.2-0.1-0.4 0-0.2-0.1-0.4 0-0.1 0-0.2 0-0.1 0-0.1 0-0.2 0.1-0.4 0-0.2 0-0.4 0.1-0.2 0.1-0.3 0.1-0.2 0.2-0.4 0-0.2 0.1-0.3 0.1-0.2 0.2-0.3 0.1-0.2 0.3-0.3 0.1-0.2 0.2-0.3 0.1-0.1 0.1-0.1l56-50.6c1.6-1.4 4-1.3 5.5 0.3 1.4 1.6 1.3 4.1-0.3 5.5l-48.5 43.8h84l-25.9-59.4c-0.8-2 0.1-4.2 2-5.1 2-0.9 4.3 0 5.1 2z"/><path fill-rule="evenodd" d="m5.5 157.5q-0.1 0-0.2 0-0.5 0.2-1 0.2c-0.9 0-1.8-0.4-2.5-1q-0.2-0.1-0.3-0.3 0 0-0.1 0-0.1-0.2-0.2-0.3-0.1-0.2-0.2-0.3-0.1-0.2-0.2-0.4 0-0.1-0.1-0.3-0.1-0.2-0.1-0.4-0.1-0.1-0.1-0.3 0-0.2 0-0.4 0-0.2 0-0.3 0-0.2 0-0.4 0-0.2 0.1-0.4 0-0.2 0.1-0.4 0-0.1 0.1-0.3l65-149.4q0 0 0 0 0.2-0.5 0.5-0.9 0.1-0.1 0.2-0.2 0.3-0.3 0.7-0.6 0 0 0.1 0 0.4-0.3 0.8-0.4 0.2-0.1 0.3-0.1 0.4-0.1 0.9-0.1 0 0 0.1-0.1 0 0.1 0 0.1 0.5 0 1 0.1 0.1 0 0.2 0.1 0.2 0 0.3 0.1 0.2 0.1 0.4 0.2 0.1 0.1 0.2 0.1 0.4 0.3 0.8 0.7 0 0.1 0.1 0.1 0.3 0.4 0.4 0.8 0.1 0 0.1 0.1l26.2 60.2 11.6-10.3c1.6-1.5 4-1.4 5.4 0.2 1.5 1.6 1.4 4.1-0.2 5.5l-109 98.3q-0.2 0.1-0.4 0.3-0.1 0-0.1 0-0.4 0.3-0.9 0.5zm9.5-18.6l62.5-56.3-19-43.6zm78.1-70.4l-23.7-54.5-6.7 15.2 20.9 47.8z"/><path fill-rule="evenodd" d="m118.4 41.4c0-6.2 5.1-11.3 11.3-11.3 6.2 0 11.3 5.1 11.3 11.3 0 6.2-5.1 11.3-11.3 11.3-6.2 0-11.3-5.1-11.3-11.3zm7.5 0c0 2.1 1.7 3.7 3.8 3.7 2.1 0 3.7-1.6 3.7-3.7 0-2.1-1.6-3.8-3.7-3.8-2.1 0-3.8 1.7-3.8 3.8z"/></svg>