<svg width="105" height="16" viewBox="0 0 105 16" fill="none" xmlns="http://www.w3.org/2000/svg">
  <path fill-rule="evenodd" clip-rule="evenodd" d="M25.2214 8.81467C25.2214 6.29744 24.9122 4.30231 19.8004 4.30231C15.5339 4.30231 14.1084 5.80058 14.1387 8.26955H17.9584C18.0611 7.36302 18.935 6.96158 19.5321 6.96158C19.9856 6.96158 20.933 7.06249 20.9335 7.82752C20.9358 10.121 13.5522 8.00466 13.5522 12.8834C13.5522 15.0787 15.883 15.9693 17.1003 15.9397C18.7071 15.9013 19.9441 15.6178 21.1603 14.51L21.6272 15.638H25.4167C25.2371 15.235 25.2214 8.81467 25.2214 8.81467ZM18.9513 13.5305C18.1066 13.5305 17.7424 12.9673 17.748 12.4435C17.7581 11.548 19.6551 11.5803 21.0565 10.9156C21.1603 12.3646 20.4559 13.5305 18.9513 13.5305ZM100.898 11.2101C100.774 12.0355 100.342 13.0605 99.2288 13.0605C97.8796 13.0605 97.1416 11.7772 97.1416 10.1863C97.1416 8.93806 97.6209 7.26265 99.2288 7.26265C99.7036 7.26265 100.074 7.4036 100.341 7.68548C100.61 7.94763 100.774 8.30958 100.795 8.77299H104.917C104.608 5.65141 102.114 4.44271 99.2288 4.44271C95.6627 4.44271 93.021 6.51626 93.021 10.121C93.021 13.6857 95.7452 15.8793 99.2288 15.8793C102.217 15.8793 104.628 14.4118 105 11.2096H100.898V11.2101ZM88.434 15.6468H92.5731V4.80247H88.434V15.6468ZM88.434 3.14351H92.5731V0.37347H88.434V3.14351ZM68.9686 4.33138C65.3206 4.33138 62.8102 6.4702 62.8102 10.1358C62.8102 13.7411 65.5266 15.8793 68.9894 15.8793C72.4522 15.8793 75.172 13.797 75.172 9.93015C75.1714 6.64788 72.7811 4.33138 68.9686 4.33138ZM68.9894 13.0599C67.8967 13.0599 67.0515 11.9143 67.0515 9.92027C67.0515 8.73241 67.5678 7.26211 69.0298 7.26211C70.1433 7.20178 70.9296 8.45326 70.9296 10.0042C70.9296 11.9988 70.1433 13.0599 68.9894 13.0599ZM55.3059 7.43267C55.316 6.90893 55.898 6.66598 56.64 6.66598C56.97 6.66598 57.4335 6.74605 57.6603 6.92812C57.7697 7.01532 58.0285 7.32737 58.0722 7.69371H61.9678C61.8617 4.8765 59.0342 4.2886 56.5075 4.2886C54.2614 4.2886 51.3469 5.15619 51.3419 7.85494C51.3346 12.2823 58.2653 10.6661 58.2653 12.3574C58.2653 13.1033 57.694 13.3835 56.6714 13.3835C56.2583 13.3835 55.8144 13.1115 55.5467 12.9102C55.2571 12.6887 55.1387 12.4298 55.0926 11.9428H51.2437C51.3189 14.8982 54.0785 16 56.5518 16C61.1383 16 62.4611 14.0515 62.4779 11.8562C62.5088 7.62297 55.2773 8.95287 55.3059 7.43267ZM50.6134 8.81467C50.6134 6.29744 50.3042 4.30231 45.1924 4.30231C40.9259 4.30231 39.5004 5.80058 39.5307 8.26955H43.3504C43.4537 7.36302 44.327 6.96158 44.9253 6.96158C45.3787 6.96158 46.3256 7.06249 46.3267 7.82752C46.3284 10.121 38.9447 8.00466 38.9447 12.8834C38.9447 15.0787 41.2756 15.9693 42.4929 15.9397C44.0997 15.9013 45.3378 15.6178 46.5534 14.51L47.0204 15.638H50.8098C50.6286 15.235 50.6134 8.81467 50.6134 8.81467ZM44.3427 13.5305C43.4981 13.5305 43.1338 12.9673 43.1394 12.4435C43.1495 11.548 45.0471 11.5803 46.4485 10.9156C46.5512 12.3646 45.8474 13.5305 44.3427 13.5305ZM7.35444 0H0V15.6353H4.74974V10.7857H7.51888C11.7854 10.7857 13.8653 8.54485 13.8653 5.42327C13.8659 2.44264 11.621 0 7.35444 0ZM7.13556 7.34711H4.7503V3.82026H6.49687C7.52674 3.82026 9.09315 4.09392 9.09315 5.44302C9.09371 6.69176 8.26925 7.34711 7.13556 7.34711ZM83.5058 4.33083C81.8782 4.33083 81.1907 4.59517 79.6759 5.94701L79.6871 4.74708L75.7596 4.74379V15.6452H79.6871V9.92027C79.6871 8.57062 80.3977 7.74526 81.7171 7.74526C82.9328 7.74526 83.2223 8.36826 83.2223 9.41573V15.6457H87.5085V8.97371C87.5079 6.07369 86.3501 4.33083 83.5058 4.33083ZM34.2348 4.33083C32.6067 4.33083 31.9192 4.59517 30.405 5.94701L30.4151 4.74708L26.4887 4.74379V15.6452H30.6255V9.92027C30.6255 8.57062 31.1711 7.59335 32.4905 7.59335C33.7062 7.59335 33.9503 8.36826 33.9503 9.41573V15.6457H38.2376V8.97371C38.2365 6.07369 37.0786 4.33083 34.2348 4.33083Z" fill="black"/>
</svg>
