<svg width="21" height="27" viewBox="0 0 21 27" fill="none" xmlns="http://www.w3.org/2000/svg">
<path d="M4.53125 25.5312V26.0312H5.53125V25.5312H4.53125ZM5.03125 1.46875V0.96875C4.75511 0.96875 4.53125 1.19261 4.53125 1.46875H5.03125ZM20.3438 8.57812H20.8438H20.3438ZM0.65625 15.1875H0.15625V16.1875H0.65625V15.1875ZM5.53125 25.5312V1.46875H4.53125V25.5312H5.53125ZM5.03125 1.96875H13.2344V0.96875H5.03125V1.96875ZM13.2344 1.96875C14.9873 1.96875 16.6684 2.66509 17.9079 3.90459L18.615 3.19748C17.188 1.77045 15.2525 0.96875 13.2344 0.96875V1.96875ZM17.9079 3.90459C19.1474 5.14409 19.8438 6.82521 19.8438 8.57812H20.8438C20.8438 6.55999 20.0421 4.62452 18.615 3.19748L17.9079 3.90459ZM19.8438 8.57812C19.8438 10.331 19.1474 12.0122 17.9079 13.2517L18.615 13.9588C20.0421 12.5317 20.8438 10.5963 20.8438 8.57812H19.8438ZM17.9079 13.2517C16.6684 14.4912 14.9873 15.1875 13.2344 15.1875V16.1875C15.2525 16.1875 17.188 15.3858 18.615 13.9588L17.9079 13.2517ZM13.2344 15.1875H0.65625V16.1875H13.2344V15.1875Z" fill="#333333"/>
</svg>
