<?xml version="1.0" encoding="UTF-8" standalone="no"?>
<svg
   width="485"
   height="22"
   viewBox="0 0 485 22"
   fill="none"
   version="1.1"
   id="svg48"
   sodipodi:docname="text-line.svg"
   inkscape:version="1.1 (c68e22c387, 2021-05-23)"
   xmlns:inkscape="http://www.inkscape.org/namespaces/inkscape"
   xmlns:sodipodi="http://sodipodi.sourceforge.net/DTD/sodipodi-0.dtd"
   xmlns="http://www.w3.org/2000/svg"
   xmlns:svg="http://www.w3.org/2000/svg">
  <defs
     id="defs52" />
  <sodipodi:namedview
     id="namedview50"
     pagecolor="#ffffff"
     bordercolor="#666666"
     borderopacity="1.0"
     inkscape:pageshadow="2"
     inkscape:pageopacity="0.0"
     inkscape:pagecheckerboard="0"
     showgrid="false"
     inkscape:zoom="1.9648672"
     inkscape:cx="232.33122"
     inkscape:cy="-17.558438"
     inkscape:window-width="2560"
     inkscape:window-height="1411"
     inkscape:window-x="2391"
     inkscape:window-y="-9"
     inkscape:window-maximized="1"
     inkscape:current-layer="svg48" />
  <path
     d="m 8,3 c 0.1562,4.35194 3.6481,7.8438 8,8 -4.3519,0.1562 -7.8438,3.6481 -8,8 C 7.8438,14.6481 4.35194,11.1562 0,11 4.35194,10.8438 7.8438,7.35194 8,3 Z"
     fill="#333333"
     id="path2" />
  <g
     id="g891">
    <path
       d="m 40,20.8701 v -19.74 h 5.432 l 5.068,18.984 h 0.756 l 5.068,-18.984 h 5.432 v 19.74 H 59.04 V 3.7341 l 0.448,-1.848 H 58.76 l -5.18,18.984 H 48.148 L 42.996,1.8861 H 42.24 l 0.476,1.848 v 17.136 z"
       fill="#333333"
       id="path4" />
    <path
       d="m 64.7942,10.9861 c 0,-2.94934 0.84,-5.376 2.52,-7.28 1.68,-1.904 3.9667,-2.856002 6.86,-2.856002 2.8747,0 5.152,0.952002 6.832,2.856002 1.68,1.904 2.52,4.33066 2.52,7.28 0,2.968 -0.84,5.404 -2.52,7.308 -1.68,1.904 -3.9573,2.856 -6.832,2.856 -2.8933,0 -5.18,-0.952 -6.86,-2.856 -1.68,-1.904 -2.52,-4.34 -2.52,-7.308 z m 2.716,0 c 0,2.3707 0.5693,4.2653 1.708,5.684 1.1387,1.4187 2.7907,2.128 4.956,2.128 2.1654,0 3.808,-0.7093 4.928,-2.128 1.1387,-1.4187 1.708,-3.3133 1.708,-5.684 0,-2.352 -0.5693,-4.23734 -1.708,-5.656 -1.12,-1.41867 -2.7626,-2.128 -4.928,-2.128 -2.1653,0 -3.8173,0.70933 -4.956,2.128 -1.1387,1.41866 -1.708,3.304 -1.708,5.656 z"
       fill="#333333"
       id="path6" />
    <path
       d="m 86.6758,20.8701 v -19.74 h 5.46 l 9.0442,18.984 h 0.756 l -0.476,-1.848 V 1.1301 h 2.744 v 19.74 h -5.4602 l -9.072,-18.984 h -0.756 l 0.476,1.848 v 17.136 z"
       fill="#333333"
       id="path8" />
    <path
       d="m 107.785,20.8701 v -19.74 h 12.572 v 2.352 h -9.856 v 6.328 h 8.456 v 2.352 h -8.456 v 6.356 h 9.856 v 2.352 z"
       fill="#333333"
       id="path10" />
    <path
       d="m 139.209,1.1301 v 2.352 h -6.776 v 17.388 h -2.716 V 3.4821 h -6.776 v -2.352 z"
       fill="#333333"
       id="path12" />
    <path
       d="m 153.604,3.4821 h -4.424 v 15.036 h 4.424 v 2.352 H 142.04 v -2.352 h 4.424 V 3.4821 h -4.424 v -2.352 h 11.564 z"
       fill="#333333"
       id="path14" />
    <path
       d="m 156.663,20.8701 v -5.208 l 14.756,-11.9 v -0.756 l -1.792,0.476 h -12.964 v -2.352 h 15.484 v 5.208 l -14.756,11.9 v 0.756 l 1.792,-0.476 h 12.964 v 2.352 z"
       fill="#333333"
       id="path16" />
    <path
       d="m 175.488,20.8701 v -19.74 h 12.572 v 2.352 h -9.856 v 6.328 h 8.456 v 2.352 h -8.456 v 6.356 h 9.856 v 2.352 z"
       fill="#333333"
       id="path18" />
    <path
       d="m 213.528,1.1301 h 2.912 l -7.196,12.572 v 7.168 h -2.716 v -7.168 L 199.36,1.1301 h 2.912 l 5.236,9.352 v 1.764 h 0.756 v -1.764 z"
       fill="#333333"
       id="path20" />
    <path
       d="m 216.224,10.9861 c 0,-2.94934 0.84,-5.376 2.52,-7.28 1.68,-1.904 3.967,-2.856002 6.86,-2.856002 2.875,0 5.152,0.952002 6.832,2.856002 1.68,1.904 2.52,4.33066 2.52,7.28 0,2.968 -0.84,5.404 -2.52,7.308 -1.68,1.904 -3.957,2.856 -6.832,2.856 -2.893,0 -5.18,-0.952 -6.86,-2.856 -1.68,-1.904 -2.52,-4.34 -2.52,-7.308 z m 2.716,0 c 0,2.3707 0.569,4.2653 1.708,5.684 1.139,1.4187 2.791,2.128 4.956,2.128 2.165,0 3.808,-0.7093 4.928,-2.128 1.139,-1.4187 1.708,-3.3133 1.708,-5.684 0,-2.352 -0.569,-4.23734 -1.708,-5.656 -1.12,-1.41867 -2.763,-2.128 -4.928,-2.128 -2.165,0 -3.817,0.70933 -4.956,2.128 -1.139,1.41866 -1.708,3.304 -1.708,5.656 z"
       fill="#333333"
       id="path22" />
    <path
       d="M 238.01,13.5341 V 1.1301 h 2.716 v 11.732 c 0,2.0533 0.383,3.556 1.148,4.508 0.784,0.952 2.166,1.428 4.144,1.428 1.979,0 3.36,-0.476 4.144,-1.428 0.803,-0.9707 1.204,-2.4733 1.204,-4.508 V 1.1301 h 2.716 v 12.404 c 0,5.0773 -2.688,7.616 -8.064,7.616 -5.338,0 -8.008,-2.5387 -8.008,-7.616 z"
       fill="#333333"
       id="path24" />
    <path
       d="m 257.41,20.8701 v -19.74 h 6.748 c 2.576,0 4.536,0.40133 5.88,1.204 1.363,0.80266 2.044,2.24 2.044,4.312 0,2.65066 -1.316,4.1907 -3.948,4.62 v 0.728 h 2.464 c 1.157,0 1.736,0.56 1.736,1.68 v 7.196 h -2.716 v -7.728 h -9.492 v 7.728 z m 2.716,-10.08 h 4.032 c 0.747,0 1.344,-0.0187 1.792,-0.056 0.467,-0.0373 0.933,-0.1213 1.4,-0.252 0.485,-0.1307 0.859,-0.3267 1.12,-0.588 0.261,-0.26134 0.476,-0.616 0.644,-1.064 0.168,-0.46667 0.252,-1.036 0.252,-1.708 0,-0.672 -0.084,-1.232 -0.252,-1.68 -0.168,-0.448 -0.383,-0.80267 -0.644,-1.064 -0.261,-0.26134 -0.635,-0.45734 -1.12,-0.588 -0.467,-0.13067 -0.933,-0.21467 -1.4,-0.252 -0.448,-0.03734 -1.045,-0.056 -1.792,-0.056 h -4.032 z"
       fill="#333333"
       id="path26" />
    <path
       d="m 285.021,10.9861 c 0,-2.94934 0.84,-5.376 2.52,-7.28 1.698,-1.904 3.994,-2.856002 6.888,-2.856002 2.557,0 4.629,0.709332 6.216,2.128002 1.605,1.4 2.557,3.32266 2.856,5.768 h -2.716 c -0.224,-1.77334 -0.887,-3.136 -1.988,-4.088 -1.102,-0.97067 -2.558,-1.456 -4.368,-1.456 -2.128,0 -3.78,0.70933 -4.956,2.128 -1.158,1.4 -1.736,3.28533 -1.736,5.656 0,2.3707 0.578,4.2653 1.736,5.684 1.157,1.4187 2.809,2.128 4.956,2.128 1.81,0 3.266,-0.4853 4.368,-1.456 1.101,-0.9707 1.764,-2.3427 1.988,-4.116 h 2.716 c -0.299,2.464 -1.251,4.4053 -2.856,5.824 -1.587,1.4 -3.659,2.1 -6.216,2.1 -2.894,0 -5.19,-0.952 -6.888,-2.856 -1.68,-1.904 -2.52,-4.34 -2.52,-7.308 z"
       fill="#333333"
       id="path28" />
    <path
       d="m 306.656,20.8701 v -19.74 h 6.748 c 2.576,0 4.536,0.40133 5.88,1.204 1.363,0.80266 2.044,2.24 2.044,4.312 0,2.65066 -1.316,4.1907 -3.948,4.62 v 0.728 h 2.464 c 1.158,0 1.736,0.56 1.736,1.68 v 7.196 h -2.716 v -7.728 h -9.492 v 7.728 z m 2.716,-10.08 h 4.032 c 0.747,0 1.344,-0.0187 1.792,-0.056 0.467,-0.0373 0.934,-0.1213 1.4,-0.252 0.486,-0.1307 0.859,-0.3267 1.12,-0.588 0.262,-0.26134 0.476,-0.616 0.644,-1.064 0.168,-0.46667 0.252,-1.036 0.252,-1.708 0,-0.672 -0.084,-1.232 -0.252,-1.68 -0.168,-0.448 -0.382,-0.80267 -0.644,-1.064 -0.261,-0.26134 -0.634,-0.45734 -1.12,-0.588 -0.466,-0.13067 -0.933,-0.21467 -1.4,-0.252 -0.448,-0.03734 -1.045,-0.056 -1.792,-0.056 h -4.032 z"
       fill="#333333"
       id="path30" />
    <path
       d="m 325.195,20.8701 v -19.74 h 12.572 v 2.352 h -9.856 v 6.328 h 8.456 v 2.352 h -8.456 v 6.356 h 9.856 v 2.352 z"
       fill="#333333"
       id="path32" />
    <path
       d="m 355.415,20.8701 -2.324,-7.448 h -7.98 l -2.324,7.448 h -2.716 l 6.216,-19.74 h 5.628 l 6.216,19.74 z m -9.576,-9.8 h 6.524 l -2.884,-9.184 h -0.756 z"
       fill="#333333"
       id="path34" />
    <path
       d="m 372.78,1.1301 v 2.352 h -6.776 v 17.388 h -2.716 V 3.4821 h -6.776 v -2.352 z"
       fill="#333333"
       id="path36" />
    <path
       d="m 387.175,3.4821 h -4.424 v 15.036 h 4.424 v 2.352 h -11.564 v -2.352 h 4.424 V 3.4821 h -4.424 v -2.352 h 11.564 z"
       fill="#333333"
       id="path38" />
    <path
       d="m 389.755,1.1301 h 2.716 l 5.936,18.984 h 0.756 l 5.936,-18.984 h 2.716 l -6.216,19.74 h -5.628 z"
       fill="#333333"
       id="path40" />
    <path
       d="m 421.956,3.4821 h -4.424 v 15.036 h 4.424 v 2.352 h -11.564 v -2.352 h 4.424 V 3.4821 h -4.424 v -2.352 h 11.564 z"
       fill="#333333"
       id="path42" />
    <path
       d="m 441.084,1.1301 v 2.352 h -6.776 v 17.388 h -2.716 V 3.4821 h -6.776 v -2.352 z"
       fill="#333333"
       id="path44" />
    <path
       d="m 457.243,1.1301 h 2.912 l -7.196,12.572 v 7.168 h -2.716 v -7.168 l -7.168,-12.572 h 2.912 l 5.236,9.352 v 1.764 h 0.756 v -1.764 z"
       fill="#333333"
       id="path46" />
  </g>
</svg>
